<?xml version="1.0" encoding="UTF-8"?>
<svg width="37px" height="37px" viewBox="0 0 37 37" version="1.1" xmlns="http://www.w3.org/2000/svg" xmlns:xlink="http://www.w3.org/1999/xlink">
    <!-- Generator: Sketch 48.2 (47327) - http://www.bohemiancoding.com/sketch -->
    <title>Personalisation</title>
    <desc>Created with Sketch.</desc>
    <defs></defs>
    <g id="B2B_AL_1" stroke="none" stroke-width="1" fill="none" fill-rule="evenodd" transform="translate(-120.000000, -2706.000000)">
        <g id="Secure-Transactions" transform="translate(120.000000, 2560.000000)" fill="#FFFFFF" fill-rule="nonzero" stroke="#FFFFFF" stroke-width="0.2">
            <g id="Group-18" transform="translate(0.000000, 146.000000)">
                <g id="Personalisation">
                    <g id="Group">
                        <path d="M35.9106623,4.23145455 L32.9444156,1.26424675 C32.4341039,0.753935065 31.7556104,0.473311688 31.0338701,0.473311688 C30.3121299,0.473311688 29.6336364,0.754415584 29.1238052,1.26424675 L18.6268571,11.7616753 C18.6090779,11.7751299 18.5874545,11.7823377 18.5711169,11.7986753 C15.1973896,15.1724026 14.2834416,22.0995714 14.245961,22.3926883 C14.2272208,22.5402078 14.2776753,22.6877273 14.3829091,22.792961 C14.4732468,22.8832987 14.5957792,22.9337532 14.7226364,22.9337532 C14.7428182,22.9337532 14.763,22.9323117 14.7831818,22.9299091 C15.0762987,22.8924286 22.0034675,21.978961 25.3781558,18.6047532 C25.394974,18.5879351 25.4031429,18.5653506 25.4170779,18.5466104 L35.9116234,8.05158442 C36.4219351,7.54127273 36.7025584,6.86277922 36.7025584,6.14151948 C36.7025584,5.4192987 36.4214545,4.74128571 35.9106623,4.23145455 Z M15.2992597,21.8761299 C15.3713377,21.46 15.4861818,20.8631948 15.651,20.1630779 L17.0127922,21.5248701 C16.3121948,21.6896883 15.7153896,21.8045325 15.2992597,21.8761299 Z M22.6295844,19.4528701 C21.1812987,20.2745584 19.523987,20.8526234 18.0949221,21.2471299 L15.9277792,19.0804675 C16.3227662,17.6504416 16.9013117,15.9921688 17.7234805,14.5438831 C17.8479351,14.3252468 17.9767143,14.1109351 18.1122208,13.9033506 C18.3625714,13.5203766 18.6311818,13.1585455 18.9218961,12.8289091 L18.9382338,12.8452468 L24.3296623,18.2357143 L24.3474416,18.2534935 C24.0173247,18.5437273 23.655974,18.8132987 23.2725195,19.0636494 C23.063974,19.1991558 22.8491818,19.3288961 22.6295844,19.4528701 Z M25.0283377,17.575961 L19.5994286,12.1475325 L29.8037403,1.9437013 C30.1324156,1.61502597 30.5692078,1.43387013 31.0343506,1.43387013 C31.4994935,1.43387013 31.9367662,1.61502597 32.2654416,1.9437013 L35.2316883,4.91090909 C35.5608442,5.24006494 35.742,5.67685714 35.742,6.142 C35.742,6.60666234 35.5608442,7.04345455 35.2321688,7.37261039 L25.0283377,17.575961 Z" id="Shape"></path>
                        <path d="M31.542108,4.95382707 L24.8258872,11.6705284 C24.6380041,11.8584115 24.6380041,12.1620998 24.8258872,12.3499829 C24.9195885,12.4436842 25.0426015,12.4907751 25.1656145,12.4907751 C25.2886275,12.4907751 25.4116405,12.4436842 25.5053418,12.3499829 L32.2215625,5.63328161 C32.4094457,5.4453985 32.4094457,5.14171018 32.2215625,4.95382707 C32.0336794,4.76594395 31.7299911,4.76642447 31.542108,4.95382707 Z" id="Shape"></path>
                        <path d="M30.155961,16.5096883 C29.8902338,16.5096883 29.6754416,16.7244805 29.6754416,16.9902078 L29.6754416,32.9386494 C29.6754416,34.5238831 28.3857273,35.8131169 26.800974,35.8131169 L3.97533766,35.8131169 C2.39058442,35.8131169 1.10135065,34.5234026 1.10135065,32.9386494 L1.10135065,10.6329351 C1.10135065,9.04818182 2.39106494,7.75894805 3.97533766,7.75894805 L19.3101558,7.75894805 C19.5758831,7.75894805 19.7906753,7.54415584 19.7906753,7.27842857 C19.7906753,7.0127013 19.5758831,6.79790909 19.3101558,6.79790909 L3.97533766,6.79790909 C1.86057143,6.79790909 0.140311688,8.51816883 0.140311688,10.6329351 L0.140311688,32.9386494 C0.140311688,35.0534156 1.86057143,36.7741558 3.97533766,36.7741558 L26.8004935,36.7741558 C28.9152597,36.7741558 30.636,35.0534156 30.636,32.9386494 L30.636,16.9902078 C30.6364805,16.724961 30.4216883,16.5096883 30.155961,16.5096883 Z" id="Shape"></path>
                        <path d="M3.36363636,24.5064935 C3.09790909,24.5064935 2.88311688,24.7212857 2.88311688,24.987013 L2.88311688,30.685013 C2.88311688,32.4528442 4.32083117,33.891039 6.08866234,33.891039 L24.6295065,33.891039 C24.8952338,33.891039 25.110026,33.6762468 25.110026,33.4105195 C25.110026,33.1447922 24.8952338,32.93 24.6295065,32.93 L6.08818182,32.93 C4.85084416,32.93 3.84367532,31.9228312 3.84367532,30.685013 L3.84367532,24.987013 C3.84415584,24.7212857 3.62888312,24.5064935 3.36363636,24.5064935 Z" id="Shape"></path>
                    </g>
                </g>
            </g>
        </g>
    </g>
</svg>